<svg xmlns="http://www.w3.org/2000/svg" width="47.85" height="48" viewBox="0 0 47.85 48">
  <defs>
    <style>
      .cls-1 {
        fill: #429deb;
        fill-rule: evenodd;
      }
    </style>
  </defs>
  <path id="Forma_1" data-name="Forma 1" class="cls-1" d="M1452.08,7046.8a5.6,5.6,0,1,0-5.58-5.6A5.593,5.593,0,0,0,1452.08,7046.8Zm0-9.6a4,4,0,1,1-3.99,4A4,4,0,0,1,1452.08,7037.2Zm-0.14,32.61,12.23-17.73c4.59-6.14,3.93-16.22-1.42-21.59a15.258,15.258,0,0,0-21.62,0c-5.35,5.36-6.01,15.45-1.44,21.56Zm-9.69-38.19a13.677,13.677,0,0,1,19.37,0c4.83,4.84,5.42,13.95,1.26,19.52l-10.94,15.85-10.96-15.87C1436.84,7045.57,1437.43,7036.46,1442.25,7031.62Zm-14.37,40.45-0.57.56a0.815,0.815,0,0,0,0,1.14,0.809,0.809,0,0,0,1.13,0l0.56-.57A0.8,0.8,0,0,0,1427.88,7072.07Zm6.07-4.47a0.8,0.8,0,1,0,0,1.6h1.45a0.8,0.8,0,1,0,0-1.6h-1.45Zm-1.87,1.38a0.8,0.8,0,0,0-1.13,0l-1.02,1.03a0.8,0.8,0,0,0,0,1.13,0.763,0.763,0,0,0,.56.23,0.785,0.785,0,0,0,.57-0.23l1.02-1.03A0.8,0.8,0,0,0,1432.08,7068.98Zm10.58-1.38a0.8,0.8,0,0,0,0,1.6h1.45a0.8,0.8,0,0,0,0-1.6h-1.45Zm-4.36,0a0.8,0.8,0,0,0,0,1.6h1.46a0.8,0.8,0,0,0,0-1.6h-1.46Zm8.71,0a0.8,0.8,0,0,0,0,1.6h0.8a0.8,0.8,0,1,0,0-1.6h-0.8Zm-19.13,1.41a0.79,0.79,0,0,0,.56-0.24l3.09-3.1a1.707,1.707,0,0,1,.28-0.22l0.15-.08c0.03-.02.06-0.03,0.09-0.05l0.3-.09a1.628,1.628,0,0,1,.31-0.03h11.96a0.8,0.8,0,0,0,0-1.6h-11.96a3.525,3.525,0,0,0-.63.06,1.416,1.416,0,0,0-.22.07l-0.11.03a1.975,1.975,0,0,0-.26.08c-0.09.04-.18,0.09-0.27,0.14l-0.08.04c-0.06.04-.13,0.07-0.2,0.12a3.167,3.167,0,0,0-.49.4l-3.09,3.1A0.805,0.805,0,0,0,1427.88,7069.01Zm45.68-4.05a0.763,0.763,0,0,0,.56-0.23l0.57-.57a0.8,0.8,0,1,0-1.13-1.13l-0.56.57a0.8,0.8,0,0,0,0,1.13A0.763,0.763,0,0,0,1473.56,7064.96Zm-2.97,1.06-1.21,1.2a0.805,0.805,0,0,0,.57,1.37,0.773,0.773,0,0,0,.56-0.24l1.21-1.2a0.8,0.8,0,0,0,0-1.13A0.785,0.785,0,0,0,1470.59,7066.02Zm-5.5,1.58a0.8,0.8,0,0,0,0,1.6h1.71a0.8,0.8,0,0,0,0-1.6h-1.71Zm-5.1,0a0.8,0.8,0,1,0,0,1.6h1.7a0.8,0.8,0,1,0,0-1.6h-1.7Zm-4.21,0a0.8,0.8,0,0,0,0,1.6h0.8a0.8,0.8,0,0,0,0-1.6h-0.8Zm17.78,0.43-3.09,3.1a1.7,1.7,0,0,1-.28.21l-0.15.09a0.405,0.405,0,0,0-.09.05c-0.03.01-.05,0.01-0.08,0.02l-0.22.07a1.628,1.628,0,0,1-.31.03h-35.97l-1.21.98a0.8,0.8,0,1,0,1,1.24l0.77-.62h35.41a3.179,3.179,0,0,0,.62-0.06,2.172,2.172,0,0,0,.24-0.07l0.1-.03a1.338,1.338,0,0,0,.26-0.09,2.245,2.245,0,0,0,.27-0.13l0.08-.05a1.281,1.281,0,0,0,.2-0.11,3.723,3.723,0,0,0,.49-0.4l3.09-3.1a0.8,0.8,0,0,0,0-1.13A0.794,0.794,0,0,0,1473.56,7068.03Zm-15.38-3.63a0.794,0.794,0,0,0,.79.8h9.71l2.63-2.63a0.815,0.815,0,0,0,0-1.14,0.8,0.8,0,0,0-1.13,0l-2.16,2.17h-9.05A0.794,0.794,0,0,0,1458.18,7064.4Z" transform="translate(-1427.09 -7026)"/>
</svg>
