<svg xmlns="http://www.w3.org/2000/svg" width="35" height="35" viewBox="0 0 35 35">
  <defs>
    <style>
      .cls-1 {
        fill: #121731;
        fill-rule: evenodd;
      }
    </style>
  </defs>
  <path id="Forma_1" data-name="Forma 1" class="cls-1" d="M1462.5,7293.66a0.674,0.674,0,0,0-.68.68h0v0.01h0a0.68,0.68,0,1,0,1.36,0h0v-0.01h0A0.674,0.674,0,0,0,1462.5,7293.66Zm10.8-25.66h-21.6a6.707,6.707,0,0,0-6.7,6.7v21.6a6.713,6.713,0,0,0,6.7,6.7h10.8a0.681,0.681,0,0,0,.68-0.68v-5.3a0.68,0.68,0,1,0-1.36,0v4.61H1451.7a5.335,5.335,0,0,1-5.33-5.33v-21.6a5.335,5.335,0,0,1,5.33-5.33h21.6a5.335,5.335,0,0,1,5.33,5.33v21.6a5.335,5.335,0,0,1-5.33,5.33h-4.37v-12.06h3.96a0.691,0.691,0,0,0,.68-0.62l0.49-4.88a0.671,0.671,0,0,0-.17-0.53,0.7,0.7,0,0,0-.51-0.22h-4.45v-2.57c0-.46.14-0.64,0.54-0.64h3.88a0.674,0.674,0,0,0,.68-0.68v-4.76a0.683,0.683,0,0,0-.68-0.69h-5.09a6.032,6.032,0,0,0-5.2,2.34,7.188,7.188,0,0,0-1.24,4.15v2.88h-3.35a0.683,0.683,0,0,0-.69.68v4.85a0.691,0.691,0,0,0,.69.69h3.35v1.95a0.68,0.68,0,0,0,1.36,0v-2.64a0.681,0.681,0,0,0-.68-0.68h-3.35v-3.49h3.35a0.674,0.674,0,0,0,.68-0.68v-3.56c0-1.54.5-5.12,5.08-5.12h4.41v3.4h-3.2a1.832,1.832,0,0,0-1.91,2V7284a0.674,0.674,0,0,0,.68.68h4.38l-0.35,3.52h-4.03a0.681,0.681,0,0,0-.68.68v13.44a0.681,0.681,0,0,0,.68.68h5.06a6.713,6.713,0,0,0,6.7-6.7v-21.6A6.707,6.707,0,0,0,1473.3,7268Zm-24.34,7.01a0.681,0.681,0,0,0-.68.68v5.71a0.685,0.685,0,0,0,1.37,0v-5.71A0.683,0.683,0,0,0,1448.96,7275.01Zm0,8.67a0.687,0.687,0,0,0-.68.68v0.01a0.685,0.685,0,1,0,1.37,0v-0.01A0.689,0.689,0,0,0,1448.96,7283.68Z" transform="translate(-1445 -7268)"/>
</svg>
