<svg xmlns="http://www.w3.org/2000/svg" width="38.88" height="32" viewBox="0 0 38.88 32">
  <defs>
    <style>
      .cls-1 {
        fill: #121731;
        fill-rule: evenodd;
      }
    </style>
  </defs>
  <path id="Forma_1" data-name="Forma 1" class="cls-1" d="M1512.91,7279.93l0.03,0.02a0.876,0.876,0,0,0,.32.07,0.774,0.774,0,0,0,.69-0.45,0.764,0.764,0,0,0-.38-1.01l-0.03-.01a0.746,0.746,0,0,0-1,.37A0.76,0.76,0,0,0,1512.91,7279.93Zm27.85-5.05a0.757,0.757,0,0,0-.89-0.21,12.039,12.039,0,0,1-1.41.54,8.573,8.573,0,0,0,1.42-2.65,0.785,0.785,0,0,0-.25-0.83,0.738,0.738,0,0,0-.86-0.06,14.588,14.588,0,0,1-4.25,1.69,8.409,8.409,0,0,0-14.25,6.1c0,0.3.02,0.61,0.05,0.92a20.981,20.981,0,0,1-3.52-.65,0.759,0.759,0,0,0-.93.54,0.767,0.767,0,0,0,.53.94,22.778,22.778,0,0,0,4.79.76,0.765,0.765,0,0,0,.62-0.27,0.784,0.784,0,0,0,.16-0.66,7.159,7.159,0,0,1-.18-1.58,6.891,6.891,0,0,1,11.93-4.75,0.763,0.763,0,0,0,.7.23,16.143,16.143,0,0,0,3.04-.92,6.873,6.873,0,0,1-2.07,1.91,0.762,0.762,0,0,0,.48,1.41,14.659,14.659,0,0,0,2.08-.39,14.462,14.462,0,0,1-2.04,1.78,0.777,0.777,0,0,0-.32.64l0.02,0.99c0,10.38-7.87,21.11-21.03,21.11a20.91,20.91,0,0,1-8.66-1.87,15.993,15.993,0,0,0,8.72-3.4,0.755,0.755,0,0,0,.25-0.84,0.738,0.738,0,0,0-.7-0.52,6.975,6.975,0,0,1-5.98-3.69h0.25a8.533,8.533,0,0,0,2.21-.29,0.759,0.759,0,0,0-.04-1.48,6.959,6.959,0,0,1-5.44-5.68,7.938,7.938,0,0,0,2.59.5,0.762,0.762,0,0,0,.44-1.4,6.913,6.913,0,0,1-3.07-5.76,7,7,0,0,1,.46-2.49,23.22,23.22,0,0,0,4.17,3.62,0.756,0.756,0,0,0,1.05-.21,0.77,0.77,0,0,0-.21-1.06,21.152,21.152,0,0,1-4.6-4.21,0.747,0.747,0,0,0-.65-0.28,0.762,0.762,0,0,0-.59.37,8.479,8.479,0,0,0,.53,9.33q-0.3-.135-0.6-0.3a0.764,0.764,0,0,0-.76.01,0.772,0.772,0,0,0-.37.66v0.09a8.521,8.521,0,0,0,3.59,6.94l-0.01-.01a0.752,0.752,0,0,0-.71.25,0.766,0.766,0,0,0-.16.74,8.485,8.485,0,0,0,5.85,5.58,14.455,14.455,0,0,1-7.48,2.05,14.621,14.621,0,0,1-1.74-.1,0.766,0.766,0,0,0-.5,1.4,22.437,22.437,0,0,0,12.16,3.58,22.7,22.7,0,0,0,9.67-2.06,21.515,21.515,0,0,0,7.08-5.33,23.466,23.466,0,0,0,5.8-15.26v-0.02l-0.01-.6a16.083,16.083,0,0,0,3.69-3.94A0.751,0.751,0,0,0,1540.76,7274.88Zm-10.09,14.64a0.752,0.752,0,0,0-1.04.26h0a0.766,0.766,0,0,0,.26,1.05A0.762,0.762,0,0,0,1530.67,7289.52Zm-1.48,2.29a0.753,0.753,0,0,0-1.07.11,17.013,17.013,0,0,1-4.67,3.97,0.76,0.76,0,0,0,.38,1.42,0.736,0.736,0,0,0,.37-0.1,18.579,18.579,0,0,0,5.09-4.32A0.772,0.772,0,0,0,1529.19,7291.81Z" transform="translate(-1502.06 -7271)"/>
</svg>
